<svg width="15" height="13" viewBox="0 0 15 13" fill="none" xmlns="http://www.w3.org/2000/svg">
<path fill-rule="evenodd" clip-rule="evenodd" d="M13.5 0.250007C13.9142 0.250007 14.25 0.585793 14.25 1.00001V7.75001C14.25 8.16422 13.9142 8.50001 13.5 8.50001H12.75C12.3358 8.50001 12 8.16422 12 7.75001V1.00001C12 0.585793 12.3358 0.250007 12.75 0.250007H13.5ZM1.97727 8.79062C1.30227 8.79062 0.75 8.19935 0.75 7.47671C0.759695 6.47239 0.783758 5.91847 0.822192 5.81493C0.860626 5.7114 1.49111 4.11921 2.71364 1.03837C2.89773 0.578493 4.40981 0.250007 4.90072 0.250007H9.21C9.885 0.250007 10.875 0.84128 10.875 1.56395V8.50001L6.80457 12.7121L6.80226 12.7145C6.44071 13.0859 5.84646 13.094 5.47498 12.7324C5.35227 12.5354 5.22955 12.2726 5.22955 12.0098C5.22955 11.9441 5.22955 11.8784 5.22955 11.8127L5.84318 8.79062H1.97727Z" fill="#BCBFC2"/>
</svg>
